<svg version="1" xmlns="http://www.w3.org/2000/svg" viewBox="0 0 175 51.852"><g fill="#FFF"><path d="M132.463 28.949c-2.241 0-3.573 1.729-3.573 4.625 0 2.921 1.331 4.624 3.573 4.624 2.241 0 3.574-1.703 3.574-4.624 0-2.909-1.332-4.625-3.574-4.625zM61.605 14.718c0 .603.524.954 1.243.954a1.578 1.578 0 0 0 1.731-1.413c.001-.017.004-.035.004-.052v-.56l-1.637.105c-.922.061-1.341.375-1.341.966zM57.375 24.902l-2.754 8.108h5.584l-2.753-8.108zM88.501 29.051c-2.113 0-3.535 1.832-3.535 4.521 0 2.716 1.422 4.533 3.535 4.533 2.151 0 3.561-1.781 3.561-4.533 0-2.727-1.411-4.521-3.561-4.521zM73.669 29.051c-2.113 0-3.535 1.832-3.535 4.521 0 2.716 1.422 4.533 3.535 4.533 2.151 0 3.561-1.781 3.561-4.533-.001-2.727-1.41-4.521-3.561-4.521zM57.449 14.06c0-.929-.683-1.416-1.981-1.416h-1.915v2.862h1.994c1.244 0 1.902-.505 1.902-1.446z"/><path d="M168.519 0H6.481A6.5 6.5 0 0 0 0 6.481V45.37a6.5 6.5 0 0 0 6.481 6.481h162.037a6.5 6.5 0 0 0 6.481-6.481V6.481A6.498 6.498 0 0 0 168.519 0zm-63.563 10.989c-.739 0-1.25.271-1.397.745h-1.281c.135-1.151 1.219-1.89 2.738-1.89 1.68 0 2.628.836 2.628 2.252v4.58h-1.273v-.942h-.105a2.257 2.257 0 0 1-2.013 1.053 2.024 2.024 0 0 1-2.233-2.005c0-1.207.898-1.902 2.493-2l1.815-.105v-.579c-.001-.71-.469-1.109-1.372-1.109zM85.793 9.974h1.273v1.028h.099a1.819 1.819 0 0 1 1.81-1.139c.198-.003.395.016.59.056v1.305a3.589 3.589 0 0 0-.739-.08 1.571 1.571 0 0 0-1.711 1.575v3.958h-1.322V9.974zm-13.331 0l1.44 2.363h.105l1.427-2.363h1.471l-2.209 3.311 2.234 3.391h-1.519l-1.46-2.376h-.099l-1.465 2.376h-1.452l2.222-3.335-2.241-3.366 1.546-.001zm-3.858-2.888a.856.856 0 1 1 .101 1.711l-.051.001a.816.816 0 0 1-.856-.773l-.001-.034a.858.858 0 0 1 .807-.905zm.709 2.888v6.702h-1.318V9.974h1.318zm-17.14-2.179h3.57c1.668 0 2.672.849 2.672 2.215a1.944 1.944 0 0 1-1.557 1.908v.105a2.099 2.099 0 0 1 2 2.135c0 1.563-1.138 2.517-3.035 2.517h-3.649v-8.88h-.001zM27.659 10.37a7.38 7.38 0 0 1 4.774-2.471 7.255 7.255 0 0 1-1.659 5.196 6.104 6.104 0 0 1-4.817 2.278 6.899 6.899 0 0 1 1.702-5.003zm9.266 25.916c-1.331 1.991-2.727 3.937-4.941 3.973-2.153.049-2.876-1.266-5.345-1.266-2.491 0-3.263 1.231-5.328 1.317-2.11.078-3.722-2.126-5.102-4.098-2.757-4.029-4.904-11.353-2.026-16.337a7.91 7.91 0 0 1 6.658-4.06c2.112-.044 4.073 1.426 5.371 1.426 1.274 0 3.697-1.758 6.196-1.496a7.54 7.54 0 0 1 5.941 3.211 7.366 7.366 0 0 0-3.508 6.179 7.118 7.118 0 0 0 4.345 6.548 16.302 16.302 0 0 1-2.261 4.603zm25.702 4.025l-1.69-4.996h-7.045L52.2 40.311h-2.984l6.673-18.483h3.101l6.673 18.483h-3.036zm3.274-23.635h-1.273v-.942h-.105a2.257 2.257 0 0 1-2.013 1.053 2.024 2.024 0 0 1-2.233-2.005c0-1.207.898-1.902 2.493-2l1.815-.105v-.579c0-.708-.468-1.107-1.371-1.107-.739 0-1.25.271-1.397.745h-1.281c.135-1.151 1.219-1.89 2.738-1.89 1.68 0 2.628.836 2.628 2.252v4.58h-.001zm8.548 23.776a4.566 4.566 0 0 1-4.24-2.358h-.064v6.675h-2.766V26.835h2.677v2.241h.051a4.782 4.782 0 0 1 4.291-2.383c3.42 0 5.674 2.704 5.674 6.879.002 4.189-2.24 6.88-5.623 6.88zm5.882-23.666a2.024 2.024 0 0 1-2.233-2.005c0-1.207.898-1.902 2.493-2l1.815-.105v-.579c0-.708-.468-1.107-1.371-1.107-.739 0-1.25.271-1.397.745h-1.281c.135-1.151 1.219-1.89 2.738-1.89 1.68 0 2.628.836 2.628 2.252v4.58H82.45v-.942h-.105a2.26 2.26 0 0 1-2.014 1.051zm8.95 23.666a4.566 4.566 0 0 1-4.24-2.358h-.064v6.675h-2.766V26.835h2.677v2.241h.051a4.782 4.782 0 0 1 4.291-2.383c3.42 0 5.674 2.704 5.674 6.879 0 4.189-2.241 6.88-5.623 6.88zm11.074-28.115v4.339h-1.322v-4.007c0-1.077-.468-1.613-1.447-1.613a1.537 1.537 0 0 0-1.601 1.7v3.921h-1.324V9.975h1.274v1.064h.099a2.006 2.006 0 0 1 2-1.194 2.18 2.18 0 0 1 2.321 2.492zm8.565 28.281c-4.099 0-6.866-2.114-7.045-5.457h2.831c.205 1.833 1.986 3.036 4.419 3.036 2.332 0 4.008-1.203 4.008-2.856 0-1.435-1.011-2.293-3.407-2.882l-2.396-.577c-3.394-.819-4.97-2.407-4.97-4.983 0-3.189 2.779-5.38 6.725-5.38 3.906 0 6.583 2.191 6.673 5.38h-2.792c-.167-1.845-1.692-2.958-3.92-2.958-2.228 0-3.753 1.126-3.753 2.766 0 1.307.974 2.075 3.356 2.664l2.036.5c3.792.897 5.368 2.42 5.368 5.123.003 3.459-2.752 5.624-7.133 5.624zm15.668-11.593h-2.563v7.429c0 1.154.513 1.692 1.64 1.692a8.64 8.64 0 0 0 .91-.064v2.178a7.612 7.612 0 0 1-1.536.128c-2.729 0-3.792-1.025-3.792-3.639v-7.723h-1.959v-2.191h1.959v-3.189h2.779v3.189h2.563v2.189h-.001zm7.875 11.453c-3.919 0-6.391-2.652-6.391-6.904 0-4.24 2.497-6.904 6.391-6.904 3.907 0 6.392 2.664 6.392 6.904 0 4.251-2.472 6.904-6.392 6.904zm15.564-11.094a3.872 3.872 0 0 0-1.243-.167 2.789 2.789 0 0 0-2.883 3.1v7.993h-2.766V26.835h2.638v2.293h.064a3.212 3.212 0 0 1 3.241-2.434c.319-.001.636.034.948.104v2.587h.001zm12.907 4.88h-9.517v.167a3.51 3.51 0 0 0 3.625 3.818 3.05 3.05 0 0 0 3.112-1.895h2.626c-.372 2.446-2.755 4.125-5.802 4.125-3.92 0-6.353-2.626-6.353-6.841 0-4.227 2.446-6.968 6.236-6.968 3.728 0 6.073 2.561 6.073 6.647v.946z"/><path d="M103.35 14.718c0 .603.524.954 1.243.954a1.578 1.578 0 0 0 1.731-1.413c.001-.017.004-.035.004-.052v-.56l-1.637.105c-.922.061-1.341.375-1.341.966zM82.406 14.207v-.56l-1.637.105c-.923.062-1.342.376-1.342.967 0 .603.524.954 1.243.954a1.578 1.578 0 0 0 1.731-1.413l.005-.053zM57.044 10.263c0-.819-.598-1.299-1.619-1.299h-1.871v2.591h1.637c1.219 0 1.853-.45 1.853-1.292zM155.111 28.915a2.972 2.972 0 0 0-.25-.004 3.41 3.41 0 0 0-3.431 3.391v.029h6.737a3.24 3.24 0 0 0-3.056-3.416z"/></g></svg>