<svg xmlns="http://www.w3.org/2000/svg" viewBox="0 0 135 40"><defs><linearGradient id="a" x1="21.8" y1="58.79" x2="5.017" y2="42.008" gradientTransform="matrix(1 0 0 -1 0 67.5)" gradientUnits="userSpaceOnUse"><stop offset="0" stop-color="#00a0ff"/><stop offset=".007" stop-color="#00a1ff"/><stop offset=".26" stop-color="#00beff"/><stop offset=".512" stop-color="#00d2ff"/><stop offset=".76" stop-color="#00dfff"/><stop offset="1" stop-color="#00e3ff"/></linearGradient><linearGradient id="b" x1="33.834" y1="47.499" x2="9.637" y2="47.499" gradientTransform="matrix(1 0 0 -1 0 67.5)" gradientUnits="userSpaceOnUse"><stop offset="0" stop-color="#ffe000"/><stop offset=".409" stop-color="#ffbd00"/><stop offset=".775" stop-color="orange"/><stop offset="1" stop-color="#ff9c00"/></linearGradient><linearGradient id="c" x1="24.827" y1="45.204" x2="2.069" y2="22.446" gradientTransform="matrix(1 0 0 -1 0 67.5)" gradientUnits="userSpaceOnUse"><stop offset="0" stop-color="#ff3a44"/><stop offset="1" stop-color="#c31162"/></linearGradient><linearGradient id="d" x1="7.297" y1="67.324" x2="17.46" y2="57.161" gradientTransform="matrix(1 0 0 -1 0 67.5)" gradientUnits="userSpaceOnUse"><stop offset="0" stop-color="#32a071"/><stop offset=".069" stop-color="#2da771"/><stop offset=".476" stop-color="#15cf74"/><stop offset=".801" stop-color="#06e775"/><stop offset="1" stop-color="#00f076"/></linearGradient></defs><g data-name="Layer 2"><g fill="#fff"><path d="M130 0H5a5.015 5.015 0 0 0-5 5v30a5.015 5.015 0 0 0 5 5h125a5.015 5.015 0 0 0 5-5V5a5.015 5.015 0 0 0-5-5zM84.1 6.9h.97v5.263h2.6v.937H84.1zm-4.71 0h3.7v.938h-2.728v1.7h2.464v.921h-2.464v1.7H83.1v.941h-3.7zm-4.918.068l1.567 4.642 1.655-4.71h1.069l-2.251 6.2h-.947l-2.181-6.2h1.068zm-2.046-1.61H73.5l-.716 1.273h-.874zM65.909 6.9H67l2.784 4.458-.023-.844V6.9h.97v6.2h-.96l-.029-.047-2.89-4.636.024.843v3.84h-.97zm-6.337.806a3.2 3.2 0 0 1 4.538 0A3.172 3.172 0 0 1 65.026 10a3.179 3.179 0 0 1-.912 2.3 3.216 3.216 0 0 1-4.542 0 3.182 3.182 0 0 1-.912-2.3 3.178 3.178 0 0 1 .912-2.294zm-7.64 3.015a3.564 3.564 0 0 0-1.095-.491 3.107 3.107 0 0 1-1.247-.674 1.46 1.46 0 0 1-.442-1.09 1.593 1.593 0 0 1 .543-1.195 1.979 1.979 0 0 1 1.4-.5 2.03 2.03 0 0 1 1.3.4 1.877 1.877 0 0 1 .654.882l.027.087-.893.372-.03-.11a.946.946 0 0 0-.34-.476 1.212 1.212 0 0 0-1.4 0 .653.653 0 0 0-.276.537.6.6 0 0 0 .252.488 2.687 2.687 0 0 0 .819.4 7.4 7.4 0 0 1 .752.28 3.54 3.54 0 0 1 .62.367 1.52 1.52 0 0 1 .493.591 1.887 1.887 0 0 1 .164.81 1.751 1.751 0 0 1-.19.825 1.573 1.573 0 0 1-.512.582 2.494 2.494 0 0 1-.667.318 2.522 2.522 0 0 1-.733.109 2.343 2.343 0 0 1-1.331-.443 2.082 2.082 0 0 1-.858-1.258l-.021-.084.89-.36.029.111a1.519 1.519 0 0 0 .483.783 1.2 1.2 0 0 0 .811.315 1.309 1.309 0 0 0 .8-.245.741.741 0 0 0 .316-.636.815.815 0 0 0-.318-.695zM47.2 6.9h.97v6.2h-.97zm-5.959 0h1.935a3.094 3.094 0 0 1 2.284.864A3.048 3.048 0 0 1 46.314 10a3.046 3.046 0 0 1-.857 2.236 3.09 3.09 0 0 1-2.284.864h-1.935zm11.11 21.505a6.036 6.036 0 0 1-4.607 1.853 6.606 6.606 0 1 1 0-13.211 6.3 6.3 0 0 1 4.527 1.821L51 20.141a4.6 4.6 0 0 0-3.254-1.289 4.8 4.8 0 0 0 0 9.6 4.42 4.42 0 0 0 3.334-1.321 3.766 3.766 0 0 0 .983-2.272h-4.319v-1.8h6.073a5.836 5.836 0 0 1 .1 1.127 5.962 5.962 0 0 1-1.566 4.219zM54.143 6.9h2.145a2 2 0 0 1 1.387.533 1.844 1.844 0 0 1 0 2.7 2 2 0 0 1-1.387.533h-1.175V13.1h-.97zm4.679 23.358a4.253 4.253 0 1 1 4.27-4.253 4.2 4.2 0 0 1-4.27 4.253zm9.314 0a4.253 4.253 0 1 1 4.269-4.253 4.2 4.2 0 0 1-4.269 4.253zM72.879 13.1h-.97V6.9h.97zm8.461 16.546c0 3.141-1.853 4.43-4.044 4.43a4.053 4.053 0 0 1-3.77-2.513l1.627-.677A2.354 2.354 0 0 0 77.3 32.4c1.4 0 2.271-.87 2.271-2.5v-.613H79.5a2.9 2.9 0 0 1-2.239.967 4.257 4.257 0 0 1 0-8.506 2.948 2.948 0 0 1 2.239.95h.064v-.693h1.776zM84.5 30h-1.872V17.5H84.5zm5.123-1.417a2.431 2.431 0 0 0 2.095-1.177l1.45.967a4.232 4.232 0 0 1-3.545 1.885 4.163 4.163 0 0 1-4.223-4.253 4.043 4.043 0 0 1 4.012-4.253 3.954 3.954 0 0 1 3.641 2.706l.193.484-5.687 2.352a2.164 2.164 0 0 0 2.061 1.289zM95.279 13.1h-.96l-.029-.047-2.89-4.636.024.843v3.84h-.97V6.9h1.094l2.784 4.458-.024-.844V6.9h.971zm.8-3.1a3.178 3.178 0 0 1 .912-2.294 3.2 3.2 0 0 1 4.538 0 3.172 3.172 0 0 1 .916 2.29 3.179 3.179 0 0 1-.912 2.3 3.216 3.216 0 0 1-4.542 0A3.182 3.182 0 0 1 96.076 10zm5.73 15.264H99.2V30h-1.865V17.5h4.471a3.888 3.888 0 1 1 0 7.765zm7 4.736h-1.866V17.5h1.857zm8.379-.021h-1.8v-.965h-.064a2.633 2.633 0 0 1-2.381 1.223 2.889 2.889 0 0 1-3.1-2.75c0-1.834 1.818-2.815 3.6-2.815a4.131 4.131 0 0 1 1.946.482v-.128a1.8 1.8 0 0 0-1.962-1.609 1.769 1.769 0 0 0-1.705.917l-1.657-.691a3.5 3.5 0 0 1 3.33-1.914c2.139 0 3.8 1.238 3.8 3.458zm3.506 3.812h-1.946l1.9-4.214L117.31 22h2.01l2.22 5.42h.064l2.139-5.42h2.075z"/><path d="M61.843 12.3a2.112 2.112 0 0 0 1.558-.645A2.26 2.26 0 0 0 64.04 10a2.261 2.261 0 0 0-.64-1.652 2.208 2.208 0 0 0-3.117 0A2.265 2.265 0 0 0 59.646 10a2.263 2.263 0 0 0 .638 1.652 2.116 2.116 0 0 0 1.559.648zM58.822 23.427a2.585 2.585 0 1 0 2.4 2.578 2.451 2.451 0 0 0-2.4-2.578zM89.475 23.4a2.333 2.333 0 0 0-2.223 2.481l3.8-1.579a1.648 1.648 0 0 0-1.577-.902zM100.817 11.652a2.26 2.26 0 0 0 .639-1.652 2.261 2.261 0 0 0-.639-1.652 2.208 2.208 0 0 0-3.117 0A2.265 2.265 0 0 0 97.062 10a2.263 2.263 0 0 0 .638 1.652 2.205 2.205 0 0 0 3.117 0zM57.01 9.439a.934.934 0 0 0 0-1.308.9.9 0 0 0-.7-.293h-1.197v1.894h1.192a.894.894 0 0 0 .705-.293zM44.749 11.6a2.138 2.138 0 0 0 .578-1.6 2.142 2.142 0 0 0-.578-1.592 2.157 2.157 0 0 0-1.576-.57h-.965v4.325h.965a2.165 2.165 0 0 0 1.576-.563zM77.425 23.427a2.587 2.587 0 0 0 0 5.156 2.377 2.377 0 0 0 2.275-2.562 2.4 2.4 0 0 0-2.275-2.594zM68.136 23.427a2.585 2.585 0 1 0 2.4 2.578 2.451 2.451 0 0 0-2.4-2.578zM111.7 27.519c0 .756.852 1.061 1.463 1.061a2.262 2.262 0 0 0 2.22-1.978 3.329 3.329 0 0 0-1.7-.418c-.925 0-1.983.37-1.983 1.335zM101.854 19.239H99.2v4.285h2.654a2.143 2.143 0 1 0 0-4.285z"/></g><path d="M10.435 7.538a2 2 0 0 0-.463 1.4v22.121a2 2 0 0 0 .463 1.4l.074.072L22.9 20.147v-.292L10.509 7.466z" fill="url(#a)"/><path d="M27.028 24.279L22.9 20.147v-.292l4.131-4.13.093.053 4.893 2.78c1.4.794 1.4 2.093 0 2.887l-4.893 2.781z" fill="url(#b)"/><path d="M27.122 24.225L22.9 20 10.435 32.464a1.626 1.626 0 0 0 2.078.061l14.609-8.3z" fill="url(#c)"/><path d="M27.122 15.777l-14.609-8.3a1.626 1.626 0 0 0-2.078.061L22.9 20z" fill="url(#d)"/><path d="M27.029 24.132l-14.516 8.247a1.663 1.663 0 0 1-2 .011l-.075.075.074.072a1.663 1.663 0 0 0 2-.011l14.609-8.3z" opacity=".2" style="isolation:isolate"/><path d="M10.435 32.318a2 2 0 0 1-.463-1.4v.146a2 2 0 0 0 .463 1.405l.075-.075zM32.015 21.3l-4.986 2.833.093.093 4.893-2.78A1.755 1.755 0 0 0 33.063 20a1.864 1.864 0 0 1-1.048 1.3z" opacity=".12" style="isolation:isolate"/><path d="M12.513 7.623l19.5 11.08A1.863 1.863 0 0 1 33.063 20a1.755 1.755 0 0 0-1.048-1.444l-19.5-11.08c-1.4-.794-2.541-.134-2.541 1.467v.147c-.002-1.601 1.142-2.261 2.539-1.467z" fill="#fff" opacity=".25" style="isolation:isolate"/></g></svg>