<svg xmlns="http://www.w3.org/2000/svg" xmlns:xlink="http://www.w3.org/1999/xlink" width="110" height="37" viewBox="0 0 110 37">
    <defs>
        <path id="a" d="M0 .042h25.158v29.053H0z"/>
        <path id="c" d="M.042.023h25.192v20.829H.042z"/>
        <path id="e" d="M.182.18h8.473v8.473H.182z"/>
    </defs>
    <g fill="none" fill-rule="evenodd">
        <g transform="translate(0 6.988)">
            <mask id="b" fill="#fff">
                <use xlink:href="#a"/>
            </mask>
            <path fill="#C3D3EB" d="M21.029 20.621a8.811 8.811 0 0 1-6.187 2.512c-4.833 0-8.75-3.84-8.75-8.577s3.917-8.577 8.75-8.577c1.168 0 2.283.225 3.301.632l2.344-5.469a15.037 15.037 0 0 0-5.668-1.1C6.635.042 0 6.545 0 14.568s6.635 14.527 14.82 14.527c4.02 0 7.668-1.57 10.338-4.12l-4.129-4.354z" mask="url(#b)"/>
        </g>
        <path fill="#C3D3EB" d="M42.746 22.358a8.467 8.467 0 0 1-.055-.968c0-4.7 3.86-8.51 8.62-8.51 2.617 0 4.961 1.15 6.542 2.967l-15.107 6.51zm14.662 5.05a8.65 8.65 0 0 1-6.096 2.493 8.663 8.663 0 0 1-4.632-1.332l-3.226 4.997a14.67 14.67 0 0 0 7.836 2.25c3.965 0 7.562-1.561 10.193-4.095l-4.075-4.313zm8.108-9.262C64.021 11.754 58.22 6.988 51.29 6.988c-8.064 0-14.6 6.454-14.6 14.414 0 2.888.86 5.578 2.341 7.833l26.485-11.089zM100.798 27.56a8.583 8.583 0 0 1-5.802 2.248c-4.763 0-8.625-3.87-8.625-8.643 0-1.32.296-2.572.824-3.691l-5.398-2.624a14.608 14.608 0 0 0-1.43 6.327c0 8.084 6.54 14.639 14.606 14.639 3.797 0 7.256-1.452 9.853-3.832l-4.028-4.425zM22.712 16.082l2.241-5.6 4.673 1.923s3.569 1.325 3.569 5.637V36.69h-5.632V18.21l-4.85-2.128zM79.493 31.155l-2.241 5.534-4.673-1.9s-3.569-1.31-3.569-5.57V.873h5.632v28.178l4.851 2.103z"/>
        <g transform="translate(84.734 6.988)">
            <mask id="d" fill="#fff">
                <use xlink:href="#c"/>
            </mask>
            <path fill="#C3D3EB" d="M4.191 8.225a9.023 9.023 0 0 1 5.976-2.233c4.906 0 8.883 3.844 8.883 8.587a8.318 8.318 0 0 1-.849 3.666l5.56 2.607a14.09 14.09 0 0 0 1.473-6.285C25.234 6.535 18.5.023 10.19.023 6.28.023 2.718 1.466.042 3.83l4.15 4.395z" mask="url(#d)"/>
        </g>
        <g transform="translate(26.206)">
            <mask id="f" fill="#fff">
                <use xlink:href="#e"/>
            </mask>
            <path fill="#C3D3EB" d="M8.655 4.417a4.237 4.237 0 1 1-8.473 0 4.237 4.237 0 0 1 8.473 0" mask="url(#f)"/>
        </g>
    </g>
</svg>
