<svg xmlns="http://www.w3.org/2000/svg" xmlns:xlink="http://www.w3.org/1999/xlink" width="106" height="44" viewBox="0 0 106 44">
    <defs>
        <path id="a" d="M.05.166h35.083v7.282H.05z"/>
        <path id="c" d="M.12.021h11.272V24.83H.12z"/>
        <path id="e" d="M.14.107h13.977v37.138H.14z"/>
        <path id="g" d="M.189.076h41.79v25.709H.188z"/>
    </defs>
    <g fill="none" fill-rule="evenodd">
        <path fill="#C3D3EB" d="M54.046 7.64c-13.678 8.107-24.762 20.678-39.607 23.998C8.355 33 3.288 31.38.252 28.886L0 29.504c.526 1.108 4.394 3.353 9.002 3.986l-5.686 9.485h7.445l5.875-10.015c5.198-1.154 9.85-3.287 14.255-5.92v15.935h7.08V22.338c6.175-4.489 12.039-9.492 18.374-13.465a87.257 87.257 0 0 0-2.3-1.233"/>
        <g transform="translate(56.345)">
            <mask id="b" fill="#fff">
                <use xlink:href="#a"/>
            </mask>
            <path fill="#C3D3EB" d="M35.133 3.03l-.021-.87C20.702-2.005 9.686.844.049 6.22c.769.39 1.54.802 2.311 1.228C11.466 2.062 21.68-.86 35.133 3.03" mask="url(#b)"/>
        </g>
        <path fill="#C3D3EB" d="M40.455 5.026l-.345.743c4.4-3.043 9.43-1.6 14.826.916A70.44 70.44 0 0 1 57.3 5.472c-5.873-2.611-11.629-4.053-16.845-.446M84.04 12.887l-.123-.72c-7.625 6.346-16.514.099-25.261-4.527-.778.441-1.548.9-2.311 1.374 8.757 4.8 18.356 11.262 27.695 3.873"/>
        <path fill="#C3D3EB" d="M60.165 7.038a76.824 76.824 0 0 0-2.351-1.308c-.817.478-1.625.974-2.424 1.487.784.437 1.577.9 2.376 1.378a69.205 69.205 0 0 1 2.399-1.557"/>
        <path fill="#C3D3EB" d="M60.165 7.038a76.824 76.824 0 0 0-2.351-1.308c-.817.478-1.625.974-2.424 1.487.784.437 1.577.9 2.376 1.378a69.205 69.205 0 0 1 2.399-1.557"/>
        <g transform="translate(82.13 18.145)">
            <mask id="d" fill="#fff">
                <use xlink:href="#c"/>
            </mask>
            <path fill="#C3D3EB" d="M4.966.021L.12 24.83h6.373L11.392.021z" mask="url(#d)"/>
        </g>
        <g transform="translate(91.68 6.685)">
            <mask id="f" fill="#fff">
                <use xlink:href="#e"/>
            </mask>
            <path fill="#C3D3EB" d="M7.533.107L.14 37.245h6.584L14.117.107z" mask="url(#f)"/>
        </g>
        <path fill="#C3D3EB" d="M87.86 13.568c0 2.15 1.54 3.622 3.463 3.622h.055c2.308 0 4.122-1.585 4.122-4.018 0-2.208-1.594-3.622-3.628-3.622-2.088 0-4.012 1.528-4.012 4.018"/>
        <g transform="translate(40.11 17.19)">
            <mask id="h" fill="#fff">
                <use xlink:href="#g"/>
            </mask>
            <path fill="#C3D3EB" d="M35.282.076c-3.841.051-7.268 1.803-9.708 5.46-.156-2.782-2.128-5.46-6.54-5.46-3.531 0-6.905 1.649-9.398 5.152h-.103l.623-4.534H4.653c-.26 2.163-.675 4.688-1.193 7.574L.189 25.785h6.074L8.339 14.45c.935-5.203 4.413-9.325 7.58-9.325 2.855 0 3.478 2.01 3.478 4.122 0 .824-.156 1.7-.312 2.679l-2.596 13.86h6.074l2.129-11.49c.986-5.461 4.308-9.171 7.424-9.171 2.543 0 3.53 1.648 3.53 4.122 0 .927-.157 2.06-.312 2.936L32.79 25.785h6.126l2.7-14.478c.207-1.133.362-3.04.362-4.121 0-4.947-3.114-7.11-6.696-7.11" mask="url(#h)"/>
        </g>
        <path fill="#C3D3EB" d="M18.79 29.798l10.726-18.681 1.599-2.691v14.827c2.38-1.616 4.748-3.363 7.085-5.152V2.927l-7.898-.062c-3.526 0-4.453 2.795-5.938 5.032L10.505 31.515a19.654 19.654 0 0 0 4.146-.505c1.412-.322 2.79-.73 4.14-1.212"/>
    </g>
</svg>
