<svg xmlns="http://www.w3.org/2000/svg" xmlns:xlink="http://www.w3.org/1999/xlink" width="113" height="26" viewBox="0 0 113 26">
    <defs>
        <path id="a" d="M0 .516h19.18v25.435H0z"/>
    </defs>
    <g fill="none" fill-rule="evenodd">
        <path fill="#C3D3EA" d="M98.233.516L86.305 25.073h8.026l1.767-3.273h7.682l.582 3.273h7.918v-.003L107.25.516h-9.017zm3.489 7.894l1.103 7.275h-4.023l2.92-7.275zM52.12.516l-3.455 24.557h7.978L60.099.516H52.12zm-21.25 0L18.943 25.073h8.027l1.766-3.273h7.682l.582 3.273h7.918L39.887.516h-9.016zm3.476 7.924l.012-.03 1.104 7.275h-4.024l2.908-7.245zM68.67 13.59l6.848 11.344h9.996L78.666 13.59zM69.708 11.848H80.04L89.014.552H78.682z"/>
        <path fill="#C3D3EA" d="M68.35 13.569l-8.973 11.435h10.331l8.974-11.435zM63.103.414h9.643l6.605 11.434H69.71z"/>
        <g transform="translate(0 -.516)">
            <mask id="b" fill="#fff">
                <use xlink:href="#a"/>
            </mask>
            <path fill="#C3D3EA" d="M19.18 1.912l-.768 7.222c-2.94-4.056-9.755-1.258-10.29 3.795-.68 6.414 5.878 7.91 9.448 4.133L16.8 24.3c-1.065.524-2.107.93-3.135 1.204a12.793 12.793 0 0 1-3.064.443c-1.279.027-2.437-.107-3.48-.4a8.512 8.512 0 0 1-2.823-1.367C2.686 23 1.52 21.504.802 19.68c-.717-1.828-.954-3.893-.709-6.198.197-1.854.664-3.544 1.409-5.077.737-1.531 1.759-2.923 3.06-4.185C5.792 3.017 7.13 2.109 8.58 1.49 10.024.882 11.6.556 13.303.52a11.66 11.66 0 0 1 2.984.314c.974.234 1.934.597 2.892 1.079" mask="url(#b)"/>
        </g>
    </g>
</svg>
